<mxfile host="app.diagrams.net" modified="2023-07-12T15:02:24.932Z" agent="Mozilla/5.0 (Windows NT 10.0; Win64; x64; rv:109.0) Gecko/20100101 Firefox/115.0" etag="uWO_AdIy8uOOFCvsD0r-" version="21.6.2" type="github">
  <diagram id="C5RBs43oDa-KdzZeNtuy" name="Page-1">
    <mxGraphModel dx="4412" dy="3149" grid="1" gridSize="10" guides="1" tooltips="1" connect="1" arrows="1" fold="1" page="1" pageScale="1" pageWidth="827" pageHeight="1169" math="0" shadow="0">
      <root>
        <mxCell id="WIyWlLk6GJQsqaUBKTNV-0" />
        <mxCell id="WIyWlLk6GJQsqaUBKTNV-1" parent="WIyWlLk6GJQsqaUBKTNV-0" />
        <mxCell id="0k1aMuxoiW48Gd_AHqqn-1" style="edgeStyle=orthogonalEdgeStyle;rounded=0;orthogonalLoop=1;jettySize=auto;html=1;" edge="1" parent="WIyWlLk6GJQsqaUBKTNV-1" source="0k1aMuxoiW48Gd_AHqqn-0" target="0k1aMuxoiW48Gd_AHqqn-2">
          <mxGeometry relative="1" as="geometry">
            <mxPoint x="-700" y="-1120" as="targetPoint" />
          </mxGeometry>
        </mxCell>
        <mxCell id="0k1aMuxoiW48Gd_AHqqn-0" value="Automação" style="ellipse;whiteSpace=wrap;html=1;" vertex="1" parent="WIyWlLk6GJQsqaUBKTNV-1">
          <mxGeometry x="-820" y="-1150" width="70" height="60" as="geometry" />
        </mxCell>
        <mxCell id="0k1aMuxoiW48Gd_AHqqn-4" style="edgeStyle=orthogonalEdgeStyle;rounded=0;orthogonalLoop=1;jettySize=auto;html=1;entryX=-0.029;entryY=0.417;entryDx=0;entryDy=0;entryPerimeter=0;" edge="1" parent="WIyWlLk6GJQsqaUBKTNV-1" source="0k1aMuxoiW48Gd_AHqqn-2" target="0k1aMuxoiW48Gd_AHqqn-5">
          <mxGeometry relative="1" as="geometry">
            <mxPoint x="-600" y="-1120" as="targetPoint" />
          </mxGeometry>
        </mxCell>
        <mxCell id="0k1aMuxoiW48Gd_AHqqn-7" style="edgeStyle=orthogonalEdgeStyle;rounded=0;orthogonalLoop=1;jettySize=auto;html=1;entryX=-0.029;entryY=0.622;entryDx=0;entryDy=0;entryPerimeter=0;" edge="1" parent="WIyWlLk6GJQsqaUBKTNV-1" source="0k1aMuxoiW48Gd_AHqqn-2" target="0k1aMuxoiW48Gd_AHqqn-6">
          <mxGeometry relative="1" as="geometry" />
        </mxCell>
        <mxCell id="0k1aMuxoiW48Gd_AHqqn-16" style="edgeStyle=orthogonalEdgeStyle;rounded=0;orthogonalLoop=1;jettySize=auto;html=1;" edge="1" parent="WIyWlLk6GJQsqaUBKTNV-1" source="0k1aMuxoiW48Gd_AHqqn-2">
          <mxGeometry relative="1" as="geometry">
            <mxPoint x="-675" y="-990" as="targetPoint" />
          </mxGeometry>
        </mxCell>
        <mxCell id="0k1aMuxoiW48Gd_AHqqn-2" value="Sistema" style="rounded=0;whiteSpace=wrap;html=1;" vertex="1" parent="WIyWlLk6GJQsqaUBKTNV-1">
          <mxGeometry x="-710" y="-1135" width="70" height="30" as="geometry" />
        </mxCell>
        <mxCell id="0k1aMuxoiW48Gd_AHqqn-13" style="edgeStyle=orthogonalEdgeStyle;rounded=0;orthogonalLoop=1;jettySize=auto;html=1;entryX=-0.013;entryY=0.382;entryDx=0;entryDy=0;entryPerimeter=0;" edge="1" parent="WIyWlLk6GJQsqaUBKTNV-1" source="0k1aMuxoiW48Gd_AHqqn-5" target="0k1aMuxoiW48Gd_AHqqn-10">
          <mxGeometry relative="1" as="geometry" />
        </mxCell>
        <mxCell id="0k1aMuxoiW48Gd_AHqqn-5" value="&lt;div&gt;Usuario A&lt;/div&gt;&lt;div&gt;Navios: 1,2,3&lt;br&gt;&lt;/div&gt;" style="rounded=0;whiteSpace=wrap;html=1;" vertex="1" parent="WIyWlLk6GJQsqaUBKTNV-1">
          <mxGeometry x="-600" y="-1169" width="80" height="40" as="geometry" />
        </mxCell>
        <mxCell id="0k1aMuxoiW48Gd_AHqqn-9" style="edgeStyle=orthogonalEdgeStyle;rounded=0;orthogonalLoop=1;jettySize=auto;html=1;entryX=-0.04;entryY=0.387;entryDx=0;entryDy=0;entryPerimeter=0;" edge="1" parent="WIyWlLk6GJQsqaUBKTNV-1" source="0k1aMuxoiW48Gd_AHqqn-6" target="0k1aMuxoiW48Gd_AHqqn-10">
          <mxGeometry relative="1" as="geometry">
            <mxPoint x="-460" y="-1080" as="targetPoint" />
          </mxGeometry>
        </mxCell>
        <mxCell id="0k1aMuxoiW48Gd_AHqqn-6" value="&lt;div&gt;Usuario B&lt;/div&gt;&lt;div&gt;Navios: 3,4,5&lt;br&gt;&lt;/div&gt;" style="rounded=0;whiteSpace=wrap;html=1;" vertex="1" parent="WIyWlLk6GJQsqaUBKTNV-1">
          <mxGeometry x="-600" y="-1105" width="80" height="40" as="geometry" />
        </mxCell>
        <mxCell id="0k1aMuxoiW48Gd_AHqqn-14" style="edgeStyle=orthogonalEdgeStyle;rounded=0;orthogonalLoop=1;jettySize=auto;html=1;" edge="1" parent="WIyWlLk6GJQsqaUBKTNV-1" source="0k1aMuxoiW48Gd_AHqqn-10">
          <mxGeometry relative="1" as="geometry">
            <mxPoint x="-310" y="-1112.5" as="targetPoint" />
          </mxGeometry>
        </mxCell>
        <mxCell id="0k1aMuxoiW48Gd_AHqqn-10" value="&lt;div&gt;Armazenado&lt;/div&gt;&lt;div&gt;1,2,3,4,5&lt;br&gt;&lt;/div&gt;" style="rounded=0;whiteSpace=wrap;html=1;" vertex="1" parent="WIyWlLk6GJQsqaUBKTNV-1">
          <mxGeometry x="-470" y="-1140" width="120" height="55" as="geometry" />
        </mxCell>
        <mxCell id="0k1aMuxoiW48Gd_AHqqn-18" style="edgeStyle=orthogonalEdgeStyle;rounded=0;orthogonalLoop=1;jettySize=auto;html=1;entryX=0.5;entryY=0;entryDx=0;entryDy=0;" edge="1" parent="WIyWlLk6GJQsqaUBKTNV-1" source="0k1aMuxoiW48Gd_AHqqn-15" target="0k1aMuxoiW48Gd_AHqqn-20">
          <mxGeometry relative="1" as="geometry">
            <mxPoint x="-600" y="-1000" as="targetPoint" />
            <Array as="points">
              <mxPoint x="-265" y="-1040" />
              <mxPoint x="-500" y="-1040" />
            </Array>
          </mxGeometry>
        </mxCell>
        <mxCell id="0k1aMuxoiW48Gd_AHqqn-15" value="Planilha Excel" style="rounded=0;whiteSpace=wrap;html=1;" vertex="1" parent="WIyWlLk6GJQsqaUBKTNV-1">
          <mxGeometry x="-310" y="-1128.75" width="90" height="32.5" as="geometry" />
        </mxCell>
        <mxCell id="0k1aMuxoiW48Gd_AHqqn-19" style="edgeStyle=orthogonalEdgeStyle;rounded=0;orthogonalLoop=1;jettySize=auto;html=1;" edge="1" parent="WIyWlLk6GJQsqaUBKTNV-1" source="0k1aMuxoiW48Gd_AHqqn-17">
          <mxGeometry relative="1" as="geometry">
            <mxPoint x="-570" y="-965" as="targetPoint" />
          </mxGeometry>
        </mxCell>
        <mxCell id="0k1aMuxoiW48Gd_AHqqn-65" value="" style="edgeStyle=orthogonalEdgeStyle;rounded=0;orthogonalLoop=1;jettySize=auto;html=1;" edge="1" parent="WIyWlLk6GJQsqaUBKTNV-1" source="0k1aMuxoiW48Gd_AHqqn-17" target="0k1aMuxoiW48Gd_AHqqn-64">
          <mxGeometry relative="1" as="geometry" />
        </mxCell>
        <mxCell id="0k1aMuxoiW48Gd_AHqqn-17" value="&lt;div&gt;Robô &lt;br&gt;&lt;/div&gt;&lt;div&gt;Automation Anywhere&lt;/div&gt;" style="rounded=0;whiteSpace=wrap;html=1;" vertex="1" parent="WIyWlLk6GJQsqaUBKTNV-1">
          <mxGeometry x="-740" y="-980" width="130" height="30" as="geometry" />
        </mxCell>
        <mxCell id="0k1aMuxoiW48Gd_AHqqn-22" value="" style="edgeStyle=orthogonalEdgeStyle;rounded=0;orthogonalLoop=1;jettySize=auto;html=1;" edge="1" parent="WIyWlLk6GJQsqaUBKTNV-1" source="0k1aMuxoiW48Gd_AHqqn-20" target="0k1aMuxoiW48Gd_AHqqn-21">
          <mxGeometry relative="1" as="geometry" />
        </mxCell>
        <mxCell id="0k1aMuxoiW48Gd_AHqqn-20" value="Consulta Planilha" style="rounded=0;whiteSpace=wrap;html=1;" vertex="1" parent="WIyWlLk6GJQsqaUBKTNV-1">
          <mxGeometry x="-560" y="-975" width="120" height="25" as="geometry" />
        </mxCell>
        <mxCell id="0k1aMuxoiW48Gd_AHqqn-26" style="edgeStyle=orthogonalEdgeStyle;rounded=0;orthogonalLoop=1;jettySize=auto;html=1;entryX=0.5;entryY=0;entryDx=0;entryDy=0;" edge="1" parent="WIyWlLk6GJQsqaUBKTNV-1" source="0k1aMuxoiW48Gd_AHqqn-21" target="0k1aMuxoiW48Gd_AHqqn-25">
          <mxGeometry relative="1" as="geometry" />
        </mxCell>
        <mxCell id="0k1aMuxoiW48Gd_AHqqn-21" value="Acessar Marine Traffic" style="whiteSpace=wrap;html=1;rounded=0;" vertex="1" parent="WIyWlLk6GJQsqaUBKTNV-1">
          <mxGeometry x="-413" y="-978.12" width="120" height="31.25" as="geometry" />
        </mxCell>
        <mxCell id="0k1aMuxoiW48Gd_AHqqn-28" style="edgeStyle=orthogonalEdgeStyle;rounded=0;orthogonalLoop=1;jettySize=auto;html=1;entryX=0.892;entryY=-0.078;entryDx=0;entryDy=0;entryPerimeter=0;" edge="1" parent="WIyWlLk6GJQsqaUBKTNV-1" source="0k1aMuxoiW48Gd_AHqqn-25" target="0k1aMuxoiW48Gd_AHqqn-34">
          <mxGeometry relative="1" as="geometry">
            <mxPoint x="-309.9999999999998" y="-790" as="targetPoint" />
            <Array as="points">
              <mxPoint x="-353" y="-810" />
              <mxPoint x="-309" y="-810" />
            </Array>
          </mxGeometry>
        </mxCell>
        <mxCell id="0k1aMuxoiW48Gd_AHqqn-30" value="&lt;div&gt;Não&lt;/div&gt;" style="edgeLabel;html=1;align=center;verticalAlign=middle;resizable=0;points=[];" vertex="1" connectable="0" parent="0k1aMuxoiW48Gd_AHqqn-28">
          <mxGeometry x="0.3213" y="-3" relative="1" as="geometry">
            <mxPoint x="-8" y="-46" as="offset" />
          </mxGeometry>
        </mxCell>
        <mxCell id="0k1aMuxoiW48Gd_AHqqn-29" style="edgeStyle=orthogonalEdgeStyle;rounded=0;orthogonalLoop=1;jettySize=auto;html=1;" edge="1" parent="WIyWlLk6GJQsqaUBKTNV-1" source="0k1aMuxoiW48Gd_AHqqn-25">
          <mxGeometry relative="1" as="geometry">
            <mxPoint x="-400" y="-790" as="targetPoint" />
          </mxGeometry>
        </mxCell>
        <mxCell id="0k1aMuxoiW48Gd_AHqqn-32" value="&lt;div&gt;Sim&lt;/div&gt;" style="edgeLabel;html=1;align=center;verticalAlign=middle;resizable=0;points=[];" vertex="1" connectable="0" parent="0k1aMuxoiW48Gd_AHqqn-29">
          <mxGeometry x="0.2292" y="-1" relative="1" as="geometry">
            <mxPoint x="-4" y="-9" as="offset" />
          </mxGeometry>
        </mxCell>
        <mxCell id="0k1aMuxoiW48Gd_AHqqn-25" value="Há caixa de span ?" style="rhombus;whiteSpace=wrap;html=1;" vertex="1" parent="WIyWlLk6GJQsqaUBKTNV-1">
          <mxGeometry x="-399.5" y="-920" width="93" height="90" as="geometry" />
        </mxCell>
        <mxCell id="0k1aMuxoiW48Gd_AHqqn-35" style="edgeStyle=orthogonalEdgeStyle;rounded=0;orthogonalLoop=1;jettySize=auto;html=1;entryX=0.125;entryY=0.061;entryDx=0;entryDy=0;entryPerimeter=0;" edge="1" parent="WIyWlLk6GJQsqaUBKTNV-1" source="0k1aMuxoiW48Gd_AHqqn-33" target="0k1aMuxoiW48Gd_AHqqn-34">
          <mxGeometry relative="1" as="geometry" />
        </mxCell>
        <mxCell id="0k1aMuxoiW48Gd_AHqqn-33" value="Clicar" style="rounded=0;whiteSpace=wrap;html=1;" vertex="1" parent="WIyWlLk6GJQsqaUBKTNV-1">
          <mxGeometry x="-420" y="-780" width="50" height="20" as="geometry" />
        </mxCell>
        <mxCell id="0k1aMuxoiW48Gd_AHqqn-37" value="" style="edgeStyle=orthogonalEdgeStyle;rounded=0;orthogonalLoop=1;jettySize=auto;html=1;" edge="1" parent="WIyWlLk6GJQsqaUBKTNV-1" source="0k1aMuxoiW48Gd_AHqqn-34" target="0k1aMuxoiW48Gd_AHqqn-36">
          <mxGeometry relative="1" as="geometry" />
        </mxCell>
        <mxCell id="0k1aMuxoiW48Gd_AHqqn-34" value="Clicar na barra de pesquisa" style="rounded=0;whiteSpace=wrap;html=1;" vertex="1" parent="WIyWlLk6GJQsqaUBKTNV-1">
          <mxGeometry x="-409.5" y="-720" width="113" height="30" as="geometry" />
        </mxCell>
        <mxCell id="0k1aMuxoiW48Gd_AHqqn-41" value="" style="edgeStyle=orthogonalEdgeStyle;rounded=0;orthogonalLoop=1;jettySize=auto;html=1;" edge="1" parent="WIyWlLk6GJQsqaUBKTNV-1" source="0k1aMuxoiW48Gd_AHqqn-36" target="0k1aMuxoiW48Gd_AHqqn-40">
          <mxGeometry relative="1" as="geometry" />
        </mxCell>
        <mxCell id="0k1aMuxoiW48Gd_AHqqn-47" value="" style="edgeStyle=orthogonalEdgeStyle;rounded=0;orthogonalLoop=1;jettySize=auto;html=1;" edge="1" parent="WIyWlLk6GJQsqaUBKTNV-1" source="0k1aMuxoiW48Gd_AHqqn-36" target="0k1aMuxoiW48Gd_AHqqn-46">
          <mxGeometry relative="1" as="geometry" />
        </mxCell>
        <mxCell id="0k1aMuxoiW48Gd_AHqqn-36" value="Clicar no inbox de pesquisa" style="whiteSpace=wrap;html=1;rounded=0;" vertex="1" parent="WIyWlLk6GJQsqaUBKTNV-1">
          <mxGeometry x="-409.5" y="-670" width="120" height="30" as="geometry" />
        </mxCell>
        <mxCell id="0k1aMuxoiW48Gd_AHqqn-43" value="" style="edgeStyle=orthogonalEdgeStyle;rounded=0;orthogonalLoop=1;jettySize=auto;html=1;" edge="1" parent="WIyWlLk6GJQsqaUBKTNV-1" source="0k1aMuxoiW48Gd_AHqqn-40" target="0k1aMuxoiW48Gd_AHqqn-42">
          <mxGeometry relative="1" as="geometry" />
        </mxCell>
        <mxCell id="0k1aMuxoiW48Gd_AHqqn-40" value="Colar o Imo" style="whiteSpace=wrap;html=1;rounded=0;" vertex="1" parent="WIyWlLk6GJQsqaUBKTNV-1">
          <mxGeometry x="-409.5" y="-620" width="120" height="20" as="geometry" />
        </mxCell>
        <mxCell id="0k1aMuxoiW48Gd_AHqqn-45" value="" style="edgeStyle=orthogonalEdgeStyle;rounded=0;orthogonalLoop=1;jettySize=auto;html=1;" edge="1" parent="WIyWlLk6GJQsqaUBKTNV-1" source="0k1aMuxoiW48Gd_AHqqn-42" target="0k1aMuxoiW48Gd_AHqqn-44">
          <mxGeometry relative="1" as="geometry" />
        </mxCell>
        <mxCell id="0k1aMuxoiW48Gd_AHqqn-42" value="Pesquisar" style="whiteSpace=wrap;html=1;rounded=0;" vertex="1" parent="WIyWlLk6GJQsqaUBKTNV-1">
          <mxGeometry x="-409.5" y="-584" width="120" height="24" as="geometry" />
        </mxCell>
        <mxCell id="0k1aMuxoiW48Gd_AHqqn-53" value="" style="edgeStyle=orthogonalEdgeStyle;rounded=0;orthogonalLoop=1;jettySize=auto;html=1;" edge="1" parent="WIyWlLk6GJQsqaUBKTNV-1" source="0k1aMuxoiW48Gd_AHqqn-44" target="0k1aMuxoiW48Gd_AHqqn-52">
          <mxGeometry relative="1" as="geometry" />
        </mxCell>
        <mxCell id="0k1aMuxoiW48Gd_AHqqn-57" value="" style="edgeStyle=orthogonalEdgeStyle;rounded=0;orthogonalLoop=1;jettySize=auto;html=1;" edge="1" parent="WIyWlLk6GJQsqaUBKTNV-1" source="0k1aMuxoiW48Gd_AHqqn-44" target="0k1aMuxoiW48Gd_AHqqn-56">
          <mxGeometry relative="1" as="geometry" />
        </mxCell>
        <mxCell id="0k1aMuxoiW48Gd_AHqqn-44" value="Fazer o scrapping" style="whiteSpace=wrap;html=1;rounded=0;" vertex="1" parent="WIyWlLk6GJQsqaUBKTNV-1">
          <mxGeometry x="-409.5" y="-550" width="120" height="20" as="geometry" />
        </mxCell>
        <mxCell id="0k1aMuxoiW48Gd_AHqqn-46" value="Pegar primeiro IMO" style="whiteSpace=wrap;html=1;rounded=0;" vertex="1" parent="WIyWlLk6GJQsqaUBKTNV-1">
          <mxGeometry x="-260" y="-662.5" width="120" height="15" as="geometry" />
        </mxCell>
        <mxCell id="0k1aMuxoiW48Gd_AHqqn-49" value="ESSE PROCESSO PODE SER MELHORADO" style="ellipse;whiteSpace=wrap;html=1;aspect=fixed;" vertex="1" parent="WIyWlLk6GJQsqaUBKTNV-1">
          <mxGeometry x="-230" y="-920" width="110" height="110" as="geometry" />
        </mxCell>
        <mxCell id="0k1aMuxoiW48Gd_AHqqn-52" value="Colar na planilha" style="whiteSpace=wrap;html=1;rounded=0;" vertex="1" parent="WIyWlLk6GJQsqaUBKTNV-1">
          <mxGeometry x="-260" y="-550" width="120" height="20" as="geometry" />
        </mxCell>
        <mxCell id="0k1aMuxoiW48Gd_AHqqn-59" value="" style="edgeStyle=orthogonalEdgeStyle;rounded=0;orthogonalLoop=1;jettySize=auto;html=1;" edge="1" parent="WIyWlLk6GJQsqaUBKTNV-1" source="0k1aMuxoiW48Gd_AHqqn-56" target="0k1aMuxoiW48Gd_AHqqn-58">
          <mxGeometry relative="1" as="geometry" />
        </mxCell>
        <mxCell id="0k1aMuxoiW48Gd_AHqqn-56" value="Acessar Excel" style="whiteSpace=wrap;html=1;rounded=0;" vertex="1" parent="WIyWlLk6GJQsqaUBKTNV-1">
          <mxGeometry x="-409.5" y="-500" width="120" height="20" as="geometry" />
        </mxCell>
        <mxCell id="0k1aMuxoiW48Gd_AHqqn-61" value="" style="edgeStyle=orthogonalEdgeStyle;rounded=0;orthogonalLoop=1;jettySize=auto;html=1;" edge="1" parent="WIyWlLk6GJQsqaUBKTNV-1" source="0k1aMuxoiW48Gd_AHqqn-58">
          <mxGeometry relative="1" as="geometry">
            <mxPoint x="-249.99999999999977" y="-280" as="targetPoint" />
          </mxGeometry>
        </mxCell>
        <mxCell id="0k1aMuxoiW48Gd_AHqqn-91" value="Sim" style="edgeLabel;html=1;align=center;verticalAlign=middle;resizable=0;points=[];" vertex="1" connectable="0" parent="0k1aMuxoiW48Gd_AHqqn-61">
          <mxGeometry x="-0.6637" y="2" relative="1" as="geometry">
            <mxPoint x="-14" y="-8" as="offset" />
          </mxGeometry>
        </mxCell>
        <mxCell id="0k1aMuxoiW48Gd_AHqqn-63" value="" style="edgeStyle=orthogonalEdgeStyle;rounded=0;orthogonalLoop=1;jettySize=auto;html=1;" edge="1" parent="WIyWlLk6GJQsqaUBKTNV-1" source="0k1aMuxoiW48Gd_AHqqn-58" target="0k1aMuxoiW48Gd_AHqqn-64">
          <mxGeometry relative="1" as="geometry">
            <mxPoint x="-449.9999999999998" y="-340" as="targetPoint" />
          </mxGeometry>
        </mxCell>
        <mxCell id="0k1aMuxoiW48Gd_AHqqn-92" value="Nao" style="edgeLabel;html=1;align=center;verticalAlign=middle;resizable=0;points=[];" vertex="1" connectable="0" parent="0k1aMuxoiW48Gd_AHqqn-63">
          <mxGeometry x="-0.8617" y="-5" relative="1" as="geometry">
            <mxPoint x="2" y="-5" as="offset" />
          </mxGeometry>
        </mxCell>
        <mxCell id="0k1aMuxoiW48Gd_AHqqn-58" value="Há mais casos ?" style="rhombus;whiteSpace=wrap;html=1;rounded=0;" vertex="1" parent="WIyWlLk6GJQsqaUBKTNV-1">
          <mxGeometry x="-390" y="-460" width="80" height="80" as="geometry" />
        </mxCell>
        <mxCell id="0k1aMuxoiW48Gd_AHqqn-94" value="" style="edgeStyle=orthogonalEdgeStyle;rounded=0;orthogonalLoop=1;jettySize=auto;html=1;" edge="1" parent="WIyWlLk6GJQsqaUBKTNV-1" source="0k1aMuxoiW48Gd_AHqqn-64" target="0k1aMuxoiW48Gd_AHqqn-93">
          <mxGeometry relative="1" as="geometry" />
        </mxCell>
        <mxCell id="0k1aMuxoiW48Gd_AHqqn-104" value="" style="edgeStyle=orthogonalEdgeStyle;rounded=0;orthogonalLoop=1;jettySize=auto;html=1;" edge="1" parent="WIyWlLk6GJQsqaUBKTNV-1" source="0k1aMuxoiW48Gd_AHqqn-64" target="0k1aMuxoiW48Gd_AHqqn-103">
          <mxGeometry relative="1" as="geometry" />
        </mxCell>
        <mxCell id="0k1aMuxoiW48Gd_AHqqn-64" value="Sistema" style="whiteSpace=wrap;html=1;rounded=0;" vertex="1" parent="WIyWlLk6GJQsqaUBKTNV-1">
          <mxGeometry x="-735" y="150" width="120" height="60" as="geometry" />
        </mxCell>
        <mxCell id="0k1aMuxoiW48Gd_AHqqn-80" style="edgeStyle=orthogonalEdgeStyle;rounded=0;orthogonalLoop=1;jettySize=auto;html=1;" edge="1" parent="WIyWlLk6GJQsqaUBKTNV-1" source="0k1aMuxoiW48Gd_AHqqn-72" target="0k1aMuxoiW48Gd_AHqqn-73">
          <mxGeometry relative="1" as="geometry" />
        </mxCell>
        <mxCell id="0k1aMuxoiW48Gd_AHqqn-72" value="Clicar na barra de pesquisa" style="rounded=0;whiteSpace=wrap;html=1;" vertex="1" parent="WIyWlLk6GJQsqaUBKTNV-1">
          <mxGeometry x="-306.5" y="-280" width="113" height="30" as="geometry" />
        </mxCell>
        <mxCell id="0k1aMuxoiW48Gd_AHqqn-81" style="edgeStyle=orthogonalEdgeStyle;rounded=0;orthogonalLoop=1;jettySize=auto;html=1;entryX=0.5;entryY=0;entryDx=0;entryDy=0;" edge="1" parent="WIyWlLk6GJQsqaUBKTNV-1" source="0k1aMuxoiW48Gd_AHqqn-73" target="0k1aMuxoiW48Gd_AHqqn-74">
          <mxGeometry relative="1" as="geometry" />
        </mxCell>
        <mxCell id="0k1aMuxoiW48Gd_AHqqn-73" value="Clicar no inbox de pesquisa" style="whiteSpace=wrap;html=1;rounded=0;" vertex="1" parent="WIyWlLk6GJQsqaUBKTNV-1">
          <mxGeometry x="-306.5" y="-230" width="120" height="30" as="geometry" />
        </mxCell>
        <mxCell id="0k1aMuxoiW48Gd_AHqqn-82" style="edgeStyle=orthogonalEdgeStyle;rounded=0;orthogonalLoop=1;jettySize=auto;html=1;entryX=0.5;entryY=0;entryDx=0;entryDy=0;" edge="1" parent="WIyWlLk6GJQsqaUBKTNV-1" source="0k1aMuxoiW48Gd_AHqqn-74" target="0k1aMuxoiW48Gd_AHqqn-75">
          <mxGeometry relative="1" as="geometry" />
        </mxCell>
        <mxCell id="0k1aMuxoiW48Gd_AHqqn-74" value="Colar o Imo" style="whiteSpace=wrap;html=1;rounded=0;" vertex="1" parent="WIyWlLk6GJQsqaUBKTNV-1">
          <mxGeometry x="-306.5" y="-180" width="120" height="20" as="geometry" />
        </mxCell>
        <mxCell id="0k1aMuxoiW48Gd_AHqqn-83" style="edgeStyle=orthogonalEdgeStyle;rounded=0;orthogonalLoop=1;jettySize=auto;html=1;entryX=0.5;entryY=0;entryDx=0;entryDy=0;" edge="1" parent="WIyWlLk6GJQsqaUBKTNV-1" source="0k1aMuxoiW48Gd_AHqqn-75" target="0k1aMuxoiW48Gd_AHqqn-76">
          <mxGeometry relative="1" as="geometry" />
        </mxCell>
        <mxCell id="0k1aMuxoiW48Gd_AHqqn-75" value="Pesquisar" style="whiteSpace=wrap;html=1;rounded=0;" vertex="1" parent="WIyWlLk6GJQsqaUBKTNV-1">
          <mxGeometry x="-306.5" y="-144" width="120" height="24" as="geometry" />
        </mxCell>
        <mxCell id="0k1aMuxoiW48Gd_AHqqn-84" style="edgeStyle=orthogonalEdgeStyle;rounded=0;orthogonalLoop=1;jettySize=auto;html=1;" edge="1" parent="WIyWlLk6GJQsqaUBKTNV-1" source="0k1aMuxoiW48Gd_AHqqn-76" target="0k1aMuxoiW48Gd_AHqqn-77">
          <mxGeometry relative="1" as="geometry" />
        </mxCell>
        <mxCell id="0k1aMuxoiW48Gd_AHqqn-88" style="edgeStyle=orthogonalEdgeStyle;rounded=0;orthogonalLoop=1;jettySize=auto;html=1;" edge="1" parent="WIyWlLk6GJQsqaUBKTNV-1" source="0k1aMuxoiW48Gd_AHqqn-76" target="0k1aMuxoiW48Gd_AHqqn-87">
          <mxGeometry relative="1" as="geometry" />
        </mxCell>
        <mxCell id="0k1aMuxoiW48Gd_AHqqn-76" value="Fazer o scrapping" style="whiteSpace=wrap;html=1;rounded=0;" vertex="1" parent="WIyWlLk6GJQsqaUBKTNV-1">
          <mxGeometry x="-306.5" y="-110" width="120" height="20" as="geometry" />
        </mxCell>
        <mxCell id="0k1aMuxoiW48Gd_AHqqn-77" value="Colar na planilha" style="whiteSpace=wrap;html=1;rounded=0;" vertex="1" parent="WIyWlLk6GJQsqaUBKTNV-1">
          <mxGeometry x="-157" y="-110" width="120" height="20" as="geometry" />
        </mxCell>
        <mxCell id="0k1aMuxoiW48Gd_AHqqn-90" style="edgeStyle=orthogonalEdgeStyle;rounded=0;orthogonalLoop=1;jettySize=auto;html=1;" edge="1" parent="WIyWlLk6GJQsqaUBKTNV-1" source="0k1aMuxoiW48Gd_AHqqn-87" target="0k1aMuxoiW48Gd_AHqqn-58">
          <mxGeometry relative="1" as="geometry">
            <mxPoint x="-420" y="-380" as="targetPoint" />
            <Array as="points">
              <mxPoint x="-350" y="-50" />
            </Array>
          </mxGeometry>
        </mxCell>
        <mxCell id="0k1aMuxoiW48Gd_AHqqn-87" value="Acessar Excel" style="whiteSpace=wrap;html=1;rounded=0;" vertex="1" parent="WIyWlLk6GJQsqaUBKTNV-1">
          <mxGeometry x="-310" y="-60" width="120" height="20" as="geometry" />
        </mxCell>
        <mxCell id="0k1aMuxoiW48Gd_AHqqn-96" value="" style="edgeStyle=orthogonalEdgeStyle;rounded=0;orthogonalLoop=1;jettySize=auto;html=1;" edge="1" parent="WIyWlLk6GJQsqaUBKTNV-1" source="0k1aMuxoiW48Gd_AHqqn-93" target="0k1aMuxoiW48Gd_AHqqn-95">
          <mxGeometry relative="1" as="geometry" />
        </mxCell>
        <mxCell id="0k1aMuxoiW48Gd_AHqqn-93" value="Usuario deseja um relatório" style="whiteSpace=wrap;html=1;rounded=0;" vertex="1" parent="WIyWlLk6GJQsqaUBKTNV-1">
          <mxGeometry x="-535" y="150" width="120" height="60" as="geometry" />
        </mxCell>
        <mxCell id="0k1aMuxoiW48Gd_AHqqn-98" value="" style="edgeStyle=orthogonalEdgeStyle;rounded=0;orthogonalLoop=1;jettySize=auto;html=1;" edge="1" parent="WIyWlLk6GJQsqaUBKTNV-1" source="0k1aMuxoiW48Gd_AHqqn-95" target="0k1aMuxoiW48Gd_AHqqn-97">
          <mxGeometry relative="1" as="geometry" />
        </mxCell>
        <mxCell id="0k1aMuxoiW48Gd_AHqqn-101" value="SIM" style="edgeLabel;html=1;align=center;verticalAlign=middle;resizable=0;points=[];" vertex="1" connectable="0" parent="0k1aMuxoiW48Gd_AHqqn-98">
          <mxGeometry x="0.6486" y="4" relative="1" as="geometry">
            <mxPoint x="3" y="-6" as="offset" />
          </mxGeometry>
        </mxCell>
        <mxCell id="0k1aMuxoiW48Gd_AHqqn-100" value="" style="edgeStyle=orthogonalEdgeStyle;rounded=0;orthogonalLoop=1;jettySize=auto;html=1;" edge="1" parent="WIyWlLk6GJQsqaUBKTNV-1" source="0k1aMuxoiW48Gd_AHqqn-95" target="0k1aMuxoiW48Gd_AHqqn-99">
          <mxGeometry relative="1" as="geometry" />
        </mxCell>
        <mxCell id="0k1aMuxoiW48Gd_AHqqn-102" value="Nao" style="edgeLabel;html=1;align=center;verticalAlign=middle;resizable=0;points=[];" vertex="1" connectable="0" parent="0k1aMuxoiW48Gd_AHqqn-100">
          <mxGeometry x="0.6017" y="-1" relative="1" as="geometry">
            <mxPoint y="-11" as="offset" />
          </mxGeometry>
        </mxCell>
        <mxCell id="0k1aMuxoiW48Gd_AHqqn-95" value="Existe arquivo feito pelo robo ?" style="rhombus;whiteSpace=wrap;html=1;rounded=0;" vertex="1" parent="WIyWlLk6GJQsqaUBKTNV-1">
          <mxGeometry x="-366.5" y="115" width="136.5" height="130" as="geometry" />
        </mxCell>
        <mxCell id="0k1aMuxoiW48Gd_AHqqn-97" value="Sistema faz procv e pega todos os IMOs do usuario e o horario que foi feito, criando no final um relatório unico para esse usuario" style="whiteSpace=wrap;html=1;rounded=0;" vertex="1" parent="WIyWlLk6GJQsqaUBKTNV-1">
          <mxGeometry x="-130" y="60" width="180" height="100" as="geometry" />
        </mxCell>
        <mxCell id="0k1aMuxoiW48Gd_AHqqn-99" value="Sistema avisa que não há relatorio feito" style="whiteSpace=wrap;html=1;rounded=0;" vertex="1" parent="WIyWlLk6GJQsqaUBKTNV-1">
          <mxGeometry x="-130" y="200" width="190" height="60" as="geometry" />
        </mxCell>
        <mxCell id="0k1aMuxoiW48Gd_AHqqn-103" value="Envia para o email do usuario" style="whiteSpace=wrap;html=1;rounded=0;" vertex="1" parent="WIyWlLk6GJQsqaUBKTNV-1">
          <mxGeometry x="-735" y="620" width="120" height="60" as="geometry" />
        </mxCell>
      </root>
    </mxGraphModel>
  </diagram>
</mxfile>
